<?xml version="1.0"?>
<svg width="724" height="980" xmlns="http://www.w3.org/2000/svg" xmlns:svg="http://www.w3.org/2000/svg" preserveAspectRatio="xMidYMid meet" version="1.0">
 <g class="layer">
  <title>Layer 1</title>
  <g fill="#000000" id="svg_1" transform="matrix(0.1 0 0 -0.1 0 0)">
   <path d="m1836,-16c-96,-19 -158,-40 -256,-89c-259,-130 -458,-369 -531,-640c-32,-115 -32,-394 -1,-506c74,-269 274,-515 522,-639c284,-142 595,-142 885,-1c210,103 355,251 456,465c68,147 84,226 84,426c0,149 -4,187 -22,255c-46,169 -93,257 -207,389c-71,83 -223,206 -298,243c-198,96 -446,134 -632,97z" fill="#bfbfbf" id="svg_2"/>
   <path d="m1315,-2271c-93,-49 -127,-81 -249,-233c-252,-316 -873,-1167 -912,-1251c-17,-35 -24,-68 -24,-110c0,-103 20,-137 421,-710c259,-369 380,-549 444,-654c54,-90 125,-173 182,-210c45,-31 52,-32 125,-29c65,3 80,7 103,28c38,36 70,147 69,245c-2,108 -23,165 -201,522c-80,160 -143,297 -141,304c3,9 40,13 134,14c136,1 223,17 319,60c61,27 194,132 453,358c394,345 579,491 700,554c69,36 98,39 116,11c17,-28 -9,-61 -225,-284c-234,-240 -308,-327 -343,-405c-33,-72 -50,-182 -37,-239c5,-24 7,-48 5,-52c-10,-16 -99,-56 -284,-128c-102,-39 -207,-81 -234,-93l-48,-20l6,-41c10,-61 119,-388 132,-393c6,-2 140,51 298,118c314,134 306,132 306,54c0,-57 26,-148 54,-193c33,-52 78,-98 163,-165c40,-32 78,-67 84,-79c24,-44 -38,-98 -149,-130c-54,-15 -123,-21 -362,-29c-297,-10 -394,-22 -467,-55c-61,-28 -189,-168 -307,-335c-238,-335 -360,-482 -459,-555c-118,-88 -181,-83 -282,20c-200,207 -395,776 -460,1346c-10,88 -15,228 -15,400l0,265l-70,67c-39,38 -75,68 -80,68c-15,0 -29,-35 -48,-117c-14,-64 -17,-129 -17,-358c0,-289 4,-343 51,-613c66,-389 201,-789 351,-1042c66,-112 183,-235 259,-273c103,-52 235,-53 341,-1c150,72 285,218 574,616c169,234 214,289 250,309c35,20 98,26 419,39c135,6 279,15 320,20c161,21 321,136 369,265c42,112 25,162 -93,284l-83,86l-7,191l-6,191l808,346l807,345l215,21c492,49 654,99 738,227c28,41 32,56 32,114l0,67l282,120l283,121l37,-33c71,-65 147,-66 271,-3c78,39 136,78 367,248c102,75 241,175 310,223c237,164 320,250 320,329c0,53 -20,88 -82,142c-105,91 -146,86 -312,-44c-298,-233 -507,-330 -805,-375c-110,-16 -165,-36 -177,-63c-4,-9 -10,-48 -13,-86c-6,-68 -6,-69 -41,-82c-19,-7 -219,-83 -445,-169l-410,-156l-380,31c-209,17 -510,42 -670,56l-290,25l-285,283c-395,392 -660,645 -693,663c-38,19 -276,30 -812,37l-440,6l-60,-31zm-97,-1564c-3,-163 -9,-270 -16,-287c-11,-26 -15,-28 -72,-28c-99,0 -139,31 -199,157l-33,70l158,208c153,200 159,206 162,174c2,-19 2,-151 0,-294zm1842,45c70,-66 143,-138 160,-160c29,-36 30,-41 13,-47c-10,-4 -114,-44 -230,-89c-165,-63 -215,-79 -223,-69c-6,7 -17,77 -25,156l-14,144l32,35c79,87 142,150 150,150c4,0 66,-54 137,-120z" fill="#bfbfbf" id="svg_3"/>
   <path d="m589,-4981l-67,-31l43,-127c23,-69 66,-188 95,-263c60,-158 61,-158 159,-113c51,24 53,27 48,58c-6,38 -146,427 -171,475c-9,17 -22,32 -29,32c-6,0 -42,-14 -78,-31z" fill="#bfbfbf" id="svg_4"/>
   <path d="m2979,-5612c-137,-135 -314,-183 -749,-208c-222,-13 -303,-23 -335,-44c-41,-27 -199,-275 -339,-533c-36,-67 -66,-129 -66,-138c0,-8 31,-133 69,-278c38,-144 95,-362 126,-484c54,-214 56,-222 41,-258c-21,-50 -175,-339 -449,-845c-444,-818 -477,-894 -477,-1073c0,-121 22,-179 88,-239c148,-133 322,-110 514,70c175,163 1298,1691 1391,1892c17,37 21,65 21,155c1,129 -15,207 -111,555c-106,385 -112,411 -102,404c9,-5 270,-308 502,-580l77,-91l-30,-599c-64,-1297 -63,-1423 7,-1562c63,-124 178,-190 314,-179c115,10 170,44 235,144c92,141 142,325 253,933c92,497 233,1288 251,1401c20,125 -13,260 -91,376c-49,72 -1020,1179 -1071,1221c-13,10 -24,4 -69,-40z" fill="#bfbfbf" id="svg_5"/>
  </g>
 </g>
</svg>