<?xml version="1.0" standalone="no"?>
<!DOCTYPE svg PUBLIC "-//W3C//DTD SVG 20010904//EN"
 "http://www.w3.org/TR/2001/REC-SVG-20010904/DTD/svg10.dtd">
<svg version="1.0" xmlns="http://www.w3.org/2000/svg"
 width="725.000000pt" height="600.000000pt" viewBox="0 0 725.000000 600.000000"
 preserveAspectRatio="xMidYMid meet">

<g transform="translate(0.000000,600.000000) scale(0.100000,-0.100000)"
fill="#000000" stroke="none">
<path d="M3364 5976 c-116 -36 -335 -242 -507 -474 -51 -68 -121 -161 -157
-206 -89 -112 -122 -156 -143 -189 -10 -16 -36 -47 -58 -69 -22 -23 -64 -78
-94 -122 -30 -45 -81 -119 -112 -165 -31 -47 -104 -132 -162 -190 -77 -77
-120 -131 -158 -195 l-53 -90 0 -175 c0 -97 5 -193 11 -214 14 -52 77 -96 213
-148 60 -23 142 -57 182 -76 60 -29 74 -40 79 -63 4 -16 15 -40 26 -54 24 -31
170 -111 219 -121 19 -4 46 -15 60 -25 14 -10 43 -23 65 -29 61 -17 69 -24 61
-62 -9 -49 -30 -74 -93 -117 -107 -72 -233 -121 -353 -137 -68 -9 -280 5 -280
19 0 37 -66 140 -141 220 -91 97 -169 153 -257 186 -76 29 -236 52 -357 52
-95 0 -109 -3 -270 -56 l-170 -57 -136 -103 c-74 -56 -166 -120 -205 -141 -85
-46 -130 -88 -199 -185 -66 -94 -105 -174 -147 -298 -32 -95 -33 -100 -31
-262 1 -156 3 -170 32 -260 63 -189 142 -306 268 -392 28 -19 71 -52 96 -72
118 -97 250 -112 452 -52 216 63 277 90 412 179 70 46 135 85 143 85 8 0 71
24 140 52 227 93 276 98 414 43 110 -44 180 -92 206 -143 27 -54 60 -142 60
-162 0 -10 7 -18 16 -18 15 0 16 10 9 82 -3 45 -15 109 -25 142 -11 33 -17 62
-15 65 3 2 17 -23 32 -55 23 -49 27 -73 28 -144 0 -76 -3 -92 -32 -150 -46
-93 -150 -291 -156 -297 -3 -2 -22 4 -44 15 -21 11 -69 27 -107 37 -60 14 -78
15 -135 4 -107 -20 -200 -69 -284 -149 -81 -76 -111 -130 -121 -213 -7 -57 7
-90 58 -134 50 -45 96 -57 189 -50 117 8 203 53 316 166 48 47 102 108 120
134 37 55 53 52 71 -12 37 -133 -35 -492 -125 -621 l-26 -37 -142 -6 c-130 -5
-151 -8 -246 -42 -160 -56 -208 -83 -295 -166 l-79 -77 7 -48 c15 -101 51
-127 179 -126 81 1 106 6 212 42 65 23 137 51 160 62 97 49 210 125 250 170
24 26 50 48 58 48 14 0 66 11 242 51 87 20 327 100 405 136 41 19 129 54 195
78 66 24 135 51 154 61 33 17 37 16 85 -1 172 -61 246 -75 396 -75 92 0 168 6
207 15 34 8 93 21 132 29 39 8 92 26 118 39 200 100 286 160 340 237 20 28 35
40 53 40 69 1 246 76 332 140 113 86 145 169 136 352 l-5 95 -58 77 c-63 83
-148 144 -241 172 -51 15 -252 41 -379 49 -400 23 -688 60 -790 101 -68 28
-69 28 -44 43 139 91 238 279 212 405 -13 62 -75 195 -110 237 -30 35 -70 53
-178 81 -118 29 -197 28 -268 -7 -58 -28 -120 -88 -139 -135 -5 -14 -16 -55
-24 -93 -28 -130 7 -240 119 -376 l61 -74 -48 6 c-64 9 -250 98 -271 131 -44
67 -63 226 -41 341 17 83 73 214 108 252 49 53 149 106 232 125 211 47 231 45
379 -36 132 -73 218 -171 257 -291 20 -61 56 -117 84 -132 12 -6 50 -27 86
-46 121 -66 269 -71 396 -13 60 28 90 48 167 116 87 76 73 74 183 36 54 -19
124 -44 154 -56 30 -11 74 -25 97 -30 23 -6 72 -23 108 -40 36 -16 72 -30 80
-30 7 0 17 -4 20 -10 10 -16 37 -12 60 10 l22 21 259 -86 c143 -48 264 -93
270 -101 16 -19 68 -18 92 3 20 17 183 336 370 724 50 103 117 229 149 280
101 160 131 213 138 246 3 18 11 35 16 39 5 3 20 27 32 52 13 26 62 119 109
207 88 163 135 259 183 375 30 72 64 133 111 200 49 70 56 88 68 179 18 134
12 236 -18 281 -34 52 -134 101 -296 146 -74 20 -188 54 -253 76 -66 21 -198
59 -295 84 -98 25 -211 56 -252 69 -41 13 -111 33 -155 45 -121 33 -301 89
-385 120 -41 16 -138 52 -215 80 -77 29 -212 80 -300 115 -88 35 -207 79 -265
99 -58 20 -119 43 -137 51 -17 9 -83 33 -147 55 -63 22 -166 59 -228 84 -125
48 -306 108 -383 126 -27 6 -59 17 -70 24 -71 46 -265 69 -351 42z m239 -22
c33 -8 78 -24 99 -35 22 -11 71 -28 111 -39 94 -25 208 -63 332 -110 98 -38
314 -118 505 -187 52 -18 151 -57 220 -85 421 -172 669 -260 935 -333 33 -9
103 -30 155 -47 52 -16 174 -49 270 -73 96 -24 227 -62 290 -84 63 -21 160
-51 215 -66 203 -54 276 -85 323 -139 40 -45 46 -83 39 -222 -7 -124 -11 -136
-84 -243 -25 -36 -61 -97 -79 -136 -19 -38 -35 -67 -35 -65 -1 3 -5 61 -9 130
l-7 125 0 -155 1 -155 -116 -225 c-64 -124 -136 -260 -159 -302 -24 -43 -71
-126 -103 -185 -33 -60 -75 -136 -95 -170 l-36 -62 -11 82 -11 82 -2 -82 c0
-45 3 -85 9 -88 9 -6 -32 -98 -63 -139 -13 -17 -15 -10 -23 75 l-9 94 -3 -64
c-2 -35 1 -82 6 -105 5 -23 6 -50 2 -61 -13 -36 -20 3 -23 117 l-2 113 51 105
c29 58 69 146 89 195 21 50 41 95 45 100 4 6 41 75 82 155 40 80 83 159 94
175 11 17 55 100 97 185 42 85 92 182 112 215 20 32 49 84 66 115 16 30 39 68
52 83 l23 29 -4 -106 c-3 -74 -1 -106 7 -106 7 0 11 39 11 120 l0 121 45 79
c77 135 49 123 -33 -15 -42 -71 -92 -151 -110 -177 -17 -26 -32 -49 -32 -52 0
-4 -24 -48 -53 -99 -30 -51 -82 -151 -117 -222 -35 -72 -73 -143 -85 -160 -28
-39 -160 -301 -219 -435 -25 -58 -57 -125 -70 -150 -13 -25 -36 -74 -51 -109
-14 -35 -58 -120 -97 -190 -39 -69 -79 -146 -90 -171 -11 -25 -33 -67 -50 -93
-17 -26 -28 -51 -24 -54 7 -8 5 -11 49 54 19 29 41 70 48 90 6 21 15 43 19 48
4 6 21 35 37 65 17 30 44 78 59 105 l29 50 7 -94 c4 -51 12 -99 18 -106 7 -9
-8 -50 -59 -150 -71 -139 -100 -184 -87 -135 3 14 6 34 6 45 0 17 2 17 10 5
12 -18 12 129 0 175 -6 22 -8 5 -11 -60 -2 -58 -4 -73 -6 -42 -2 26 -8 47 -14
47 -9 0 -5 -121 6 -192 5 -31 -3 -58 -16 -58 -5 0 -9 45 -9 101 0 64 -4 98
-10 94 -13 -8 -13 -140 0 -185 9 -32 5 -45 -61 -175 -72 -142 -86 -162 -103
-145 -6 6 -19 10 -30 10 -12 0 -52 13 -91 28 -38 16 -119 46 -180 67 -60 21
-111 39 -113 40 -1 1 0 10 4 19 8 20 33 21 41 0 5 -12 7 -13 14 -3 6 10 11 7
18 -11 7 -18 10 -20 10 -7 1 21 21 23 21 2 0 -9 6 -12 15 -9 10 4 15 0 15 -12
0 -16 2 -17 11 -4 7 11 12 12 15 3 3 -7 12 -9 20 -6 9 3 14 -1 14 -13 0 -16 2
-17 10 -4 6 9 13 11 18 5 4 -5 23 -11 42 -13 19 -1 38 -8 42 -15 5 -8 8 -7 8
6 0 28 20 19 21 -10 2 -27 2 -27 6 -3 2 14 9 45 16 70 l12 45 6 -70 5 -70 2
95 c1 52 7 102 13 110 7 11 8 -16 5 -90 -4 -88 -4 -94 4 -40 16 124 17 188 3
183 -7 -3 -13 0 -13 6 0 6 -16 17 -35 25 -21 9 -35 22 -35 33 0 15 -2 15 -9 4
-7 -11 -13 -12 -23 -4 -13 11 -18 13 -38 13 -5 0 -10 6 -10 14 0 9 -7 12 -20
9 -11 -3 -20 0 -20 6 0 5 -7 8 -15 5 -8 -4 -15 -1 -15 6 0 7 -7 10 -15 6 -9
-3 -18 1 -22 10 -4 11 -8 12 -13 4 -6 -9 -11 -8 -21 3 -7 7 -21 12 -31 9 -13
-3 -18 2 -19 19 -1 17 -3 19 -6 7 -2 -10 -10 -18 -16 -18 -21 0 -40 17 -33 29
4 6 2 11 -3 11 -6 0 -11 -4 -11 -10 0 -5 -7 -10 -16 -10 -11 0 -14 6 -9 21 5
15 4 19 -4 15 -6 -4 -11 -15 -12 -24 0 -14 -2 -13 -9 3 -6 14 -9 15 -9 5 -1
-9 -10 -23 -21 -33 -19 -16 -20 -16 -20 8 0 17 -4 23 -14 19 -10 -4 -13 5 -12
40 0 25 3 46 6 46 3 0 66 -25 140 -56 186 -77 336 -130 390 -138 36 -5 52 -2
79 14 35 22 37 39 3 21 -47 -25 -139 -4 -327 74 -50 21 -130 52 -180 70 -49
18 -97 36 -106 39 -14 6 -17 -5 -23 -71 -3 -43 -11 -112 -16 -153 -6 -41 -13
-108 -16 -147 -5 -55 -11 -73 -22 -73 -12 0 -14 12 -8 73 3 39 8 135 10 212 2
77 3 122 0 100 -36 -363 -37 -375 -52 -375 -9 0 -45 13 -81 29 -36 16 -109 43
-161 61 -279 94 -287 97 -257 109 37 14 37 14 37 -6 1 -13 5 -10 16 10 9 17
23 27 38 27 31 0 36 -7 26 -41 -11 -38 4 -38 16 0 l9 29 90 -27 c50 -15 112
-37 139 -49 69 -31 84 -29 92 13 3 19 12 35 19 35 7 0 15 14 19 32 8 39 0 49
-14 17 -8 -18 -9 -2 -6 64 l5 89 -62 28 c-135 61 -476 200 -505 206 -30 6 -30
5 -41 -48 -7 -30 -14 -103 -16 -163 -3 -61 -7 -123 -10 -140 l-5 -30 12 33
c13 37 44 46 34 10 -3 -13 -6 -28 -6 -34 0 -29 -40 -19 -171 44 -129 62 -139
69 -134 90 4 15 2 21 -5 17 -5 -3 -10 -13 -10 -21 0 -12 -4 -13 -21 -3 -19 10
-21 17 -15 60 4 28 3 49 -2 49 -9 0 -3 42 22 165 6 30 6 30 -6 5 -7 -14 -17
-28 -23 -32 -5 -4 -15 -22 -22 -40 -8 -22 -12 -27 -12 -13 -1 18 23 192 31
225 6 24 -127 89 -417 205 -49 20 -104 44 -122 55 -18 10 -63 30 -100 43 -37
14 -77 29 -88 33 -20 7 -20 7 -1 -14 18 -21 18 -23 -2 -89 -30 -95 -41 -143
-35 -143 3 0 0 -7 -7 -15 -7 -8 -18 -15 -24 -15 -15 0 -3 89 25 194 10 39 16
72 14 74 -7 8 -34 -63 -46 -121 -24 -117 -29 -124 -24 -37 4 58 2 80 -5 70 -5
-8 -10 -35 -11 -60 0 -25 -5 -67 -9 -95 -7 -39 -8 -29 -4 43 3 51 7 100 11
110 4 13 3 14 -6 6 -6 -6 -15 -44 -20 -85 -5 -41 -12 -82 -16 -92 -5 -11 -1
-25 10 -37 22 -24 35 -17 35 18 l0 27 14 -27 c8 -15 12 -37 9 -50 -4 -22 -4
-22 11 -4 19 23 28 20 196 -65 63 -32 128 -62 144 -69 23 -9 26 -13 16 -25 -8
-9 -8 -15 -2 -15 6 0 12 5 14 12 3 7 12 9 23 4 17 -6 17 -8 2 -23 -14 -15 -20
-14 -72 7 -38 15 -54 27 -51 36 3 8 1 14 -4 14 -6 0 -10 -4 -10 -10 0 -5 -7
-10 -16 -10 -10 0 -14 6 -10 15 3 8 1 15 -4 15 -6 0 -10 -5 -10 -10 0 -6 -18
-1 -40 10 -27 14 -38 25 -34 35 4 8 2 15 -4 15 -6 0 -12 -5 -14 -12 -3 -7 -12
-9 -22 -5 -13 5 -15 11 -6 27 7 13 7 20 0 20 -5 0 -10 -7 -10 -15 0 -17 -9
-19 -28 -6 -10 6 -10 11 3 21 16 13 15 15 -2 21 -26 11 -43 10 -43 -1 0 -5 7
-7 16 -3 12 4 15 2 12 -8 -8 -21 -35 -14 -152 38 -104 47 -106 48 -101 78 l5
30 -11 -27 -10 -26 -52 17 c-60 21 -57 0 -28 194 10 64 14 117 11 117 -4 0
-17 -62 -28 -137 -12 -75 -24 -139 -27 -141 -3 -3 -22 3 -44 13 -37 16 -39 19
-29 47 6 16 8 31 5 34 -3 3 -8 -8 -12 -25 -4 -17 -8 -31 -10 -31 -17 0 -35 16
-35 30 0 38 12 50 49 50 53 0 63 -10 57 -56 -5 -28 -4 -33 3 -19 15 35 41 268
33 304 -8 39 -11 40 -215 142 -125 63 -290 124 -311 116 -16 -6 -55 -157 -63
-242 l-6 -62 89 -38 c174 -74 209 -93 228 -125 10 -17 16 -33 14 -35 -4 -5
-55 15 -145 55 -38 17 -53 30 -54 44 -1 17 -2 18 -6 4 -2 -10 -7 -18 -9 -18
-3 0 -40 16 -82 35 -80 37 -112 66 -111 100 l0 20 9 -20 c6 -15 9 -6 11 35 1
49 2 51 8 20 5 -28 8 -17 14 55 5 50 11 101 14 115 9 37 -8 17 -18 -22 -7 -26
-8 -21 -5 25 3 34 1 55 -5 52 -5 -4 -9 -19 -9 -36 0 -16 -5 -29 -11 -29 -6 0
-9 6 -6 13 3 8 8 40 12 73 9 73 35 125 77 158 54 41 318 207 393 247 39 21 86
40 105 44 49 9 158 -18 224 -55 29 -17 89 -43 132 -59 44 -16 117 -47 164 -69
47 -22 132 -54 190 -72 95 -29 189 -67 336 -136 28 -13 55 -24 60 -24 5 0 22
-9 38 -20 l30 -19 -27 -10 c-29 -11 -48 -46 -39 -71 18 -52 62 -63 107 -28 23
18 26 26 22 55 -4 25 -3 33 6 30 189 -82 266 -120 397 -194 19 -11 72 -34 117
-51 45 -18 167 -73 271 -124 104 -51 230 -113 281 -137 51 -24 97 -53 103 -64
14 -28 4 -102 -32 -227 -53 -184 -71 -252 -66 -258 7 -7 21 31 47 123 11 44
30 107 40 140 10 33 24 93 31 132 19 112 38 97 -387 305 -127 62 -260 124
-295 137 -36 13 -119 53 -185 89 -66 36 -149 78 -185 93 -82 34 -185 79 -375
164 -159 70 -243 103 -340 131 -33 10 -94 34 -135 55 -41 20 -111 49 -155 64
-44 15 -109 42 -145 60 -36 18 -97 41 -137 51 -113 28 -131 21 -487 -206 -141
-90 -166 -109 -172 -135 -3 -16 -10 -34 -14 -40 -5 -5 -10 -21 -13 -35 l-4
-25 -2 26 c0 16 -10 30 -23 37 -51 24 -157 65 -218 83 -36 10 -75 24 -87 30
-14 8 -30 8 -50 2 -27 -9 -28 -13 -31 -79 -4 -99 -22 -107 -22 -9 0 43 -4 75
-8 69 -14 -17 2 -177 20 -203 11 -16 48 -35 110 -57 215 -76 223 -80 220 -105
-4 -24 -3 -24 13 -4 9 11 14 14 10 8 -3 -7 -2 -13 3 -13 6 0 12 7 16 15 11 29
26 15 26 -25 l0 -40 -77 39 c-43 21 -122 55 -176 76 -69 27 -111 50 -145 80
l-47 43 2 98 c1 66 -1 89 -7 69 -6 -24 -8 -17 -11 40 -5 117 -5 149 4 174 18
54 124 193 216 283 55 54 119 125 142 160 55 81 110 155 179 243 31 39 82 108
114 155 33 47 89 121 125 165 37 44 113 142 171 219 175 233 373 418 490 459
58 21 147 21 223 1z m-1518 -1884 c3 -6 -1 -7 -9 -4 -18 7 -21 14 -7 14 6 0
13 -4 16 -10z m133 -78 l152 -55 0 -95 0 -94 -27 7 c-16 3 -55 18 -88 32 -33
13 -97 36 -142 50 -76 24 -83 28 -82 52 0 24 1 24 9 6 6 -15 9 -8 9 28 1 26
-3 47 -9 47 -5 0 -10 21 -10 46 0 40 2 45 18 39 9 -4 86 -32 170 -63z m12 31
l25 -14 -25 7 c-14 4 -38 12 -55 20 l-30 13 30 -6 c17 -3 41 -12 55 -20z m168
-88 c-3 -3 -9 2 -12 12 -6 14 -5 15 5 6 7 -7 10 -15 7 -18z m1840 -88 c2 -10
1 -26 -3 -35 -5 -14 -7 -14 -15 -2 -5 8 -7 23 -4 32 4 13 1 16 -10 12 -9 -3
-16 -1 -16 6 0 19 44 7 48 -13z m-1638 3 c0 -5 -9 -33 -20 -62 -11 -29 -20
-71 -20 -93 0 -47 -9 -85 -20 -85 -10 0 -2 67 16 141 8 31 14 69 14 83 0 16 6
26 15 26 8 0 15 -4 15 -10z m1580 -3 c0 -7 -5 -18 -12 -25 -7 -7 -8 -13 -2
-13 5 -1 15 -2 23 -3 8 0 16 -7 18 -13 6 -17 -29 -17 -45 -1 -13 13 -16 50 -5
61 11 11 23 8 23 -6z m-1745 -205 c-13 -14 -16 13 -8 85 l8 78 3 -79 c2 -43 0
-81 -3 -84z m465 -52 c9 -19 21 -46 25 -59 13 -42 -14 -13 -45 49 -16 32 -34
61 -40 65 -5 3 -15 16 -21 28 -8 16 -1 12 26 -13 20 -19 45 -51 55 -70z m-305
70 c3 -5 1 -10 -4 -10 -6 0 -11 5 -11 10 0 6 2 10 4 10 3 0 8 -4 11 -10z m95
-65 c7 -9 8 -15 2 -15 -5 0 -12 7 -16 15 -3 8 -4 15 -2 15 2 0 9 -7 16 -15z
m-73 -12 c119 -52 163 -77 163 -94 0 -6 -61 16 -218 82 -24 9 -22 29 3 29 8 0
31 -7 52 -17z m-1177 -73 c6 -1 -112 -40 -122 -40 -10 0 3 33 16 43 9 6 76 4
106 -3z m1500 -125 c-11 -71 -48 -157 -64 -152 -6 2 -39 -19 -73 -47 -72 -60
-237 -137 -303 -142 l-45 -3 50 13 c74 19 195 78 267 129 120 86 156 140 160
241 1 35 5 50 10 41 5 -8 4 -44 -2 -80z m-1489 60 c60 -9 158 -54 239 -107 87
-58 134 -101 196 -180 l45 -58 -28 0 c-15 0 -63 7 -106 15 -109 21 -161 19
-263 -10 -153 -43 -247 -96 -339 -189 -104 -105 -130 -156 -130 -256 1 -103
19 -170 62 -219 19 -23 38 -39 43 -36 5 3 21 0 37 -6 15 -6 76 -11 136 -10
135 2 190 19 351 109 155 88 268 197 345 335 28 51 51 102 51 113 0 18 9 19
193 20 166 1 203 4 272 23 179 50 299 134 359 254 16 31 33 57 38 57 5 0 34
-13 66 -29 31 -15 82 -36 112 -46 55 -17 234 -94 430 -185 58 -27 134 -60 170
-73 36 -14 94 -38 130 -54 36 -16 91 -40 123 -53 32 -12 106 -49 163 -80 58
-32 160 -82 227 -111 67 -29 135 -62 150 -72 l29 -20 -29 -23 c-88 -72 -242
-121 -344 -109 -122 14 -250 108 -326 237 -55 95 -130 175 -221 235 -98 65
-150 76 -322 70 -124 -4 -155 -9 -215 -32 -97 -36 -139 -68 -217 -163 -93
-114 -122 -199 -122 -362 -1 -113 0 -116 35 -185 45 -89 99 -164 136 -191 94
-70 357 -158 377 -126 3 6 -13 13 -42 17 -71 9 -82 21 -25 28 44 5 52 2 110
-38 67 -47 201 -110 303 -143 173 -56 284 -70 665 -87 161 -7 224 -14 330 -36
196 -41 253 -60 299 -101 43 -37 76 -49 76 -27 0 22 -39 75 -80 108 -52 42
-88 56 -213 86 -120 28 -152 31 -447 50 -264 17 -397 32 -454 50 -40 14 -40
14 34 9 41 -3 122 -11 180 -19 58 -8 179 -19 270 -24 269 -18 380 -31 466 -57
91 -27 197 -91 218 -133 8 -14 23 -34 35 -45 27 -25 23 -88 -13 -186 -51 -136
-77 -175 -156 -224 -39 -25 -148 -66 -174 -66 -21 0 -20 11 5 65 19 41 20 51
10 107 -7 35 -14 72 -15 83 -7 38 -38 119 -62 156 -78 124 -281 189 -409 131
-59 -27 -86 -56 -128 -137 -28 -53 -32 -69 -32 -145 0 -107 24 -162 118 -271
74 -86 121 -113 212 -123 66 -6 56 1 -37 28 -67 20 -118 59 -184 143 -97 123
-117 227 -67 348 15 37 33 65 41 65 7 0 25 9 39 20 26 20 63 27 63 12 0 -4
-13 -29 -29 -55 -40 -63 -54 -120 -47 -192 4 -43 3 -55 -5 -43 -5 10 -12 46
-16 81 -6 65 7 108 41 136 17 14 22 51 7 51 -19 0 -81 -98 -91 -146 -24 -105
8 -193 104 -292 78 -80 151 -123 215 -126 22 -1 43 -5 47 -8 11 -12 -124 -150
-190 -194 -47 -32 -310 -107 -411 -118 -66 -7 -194 7 -329 35 -124 26 -125 13
12 113 254 183 330 351 291 642 -14 111 -39 179 -85 232 -90 106 -256 147
-421 103 -196 -51 -280 -156 -380 -476 -20 -66 -24 -94 -20 -160 7 -122 41
-188 155 -300 50 -50 92 -95 92 -101 0 -6 -33 -26 -72 -44 -40 -18 -100 -45
-133 -60 -114 -53 -574 -181 -593 -165 -1 1 13 39 32 83 86 200 112 336 89
465 -14 85 -65 197 -106 235 l-25 24 24 41 c52 92 77 155 84 217 4 36 11 74
16 84 5 13 4 17 -3 13 -6 -4 -14 -23 -17 -42 -4 -19 -11 -35 -16 -35 -6 0 -30
-42 -55 -92 -49 -99 -164 -278 -178 -278 -5 0 -2 10 6 22 39 56 99 161 111
195 7 21 38 79 68 128 78 129 97 198 78 295 -13 74 -75 193 -130 252 -41 44
-52 51 -125 68 -44 11 -108 20 -143 20 -103 0 -238 -55 -380 -154 -40 -28 -94
-66 -120 -84 -26 -18 -53 -30 -60 -27 -8 3 -49 -11 -93 -30 -149 -65 -379
-118 -479 -110 -105 9 -201 26 -249 44 -41 15 -135 74 -181 113 -52 44 -111
132 -146 218 l-39 95 2 174 c4 247 28 331 158 531 80 125 107 155 160 182 22
12 87 53 145 93 110 76 257 154 350 187 60 21 203 47 235 42 11 -1 36 -5 56
-9z m1572 -14 c21 -13 36 -25 34 -28 -2 -2 -23 -1 -46 3 -35 6 -41 10 -41 31
0 27 -1 27 53 -6z m-2063 -26 c0 -2 -15 -12 -32 -20 l-33 -16 25 20 c24 20 40
26 40 16z m61 -25 c-35 -17 -66 -28 -69 -25 -6 6 98 55 118 55 8 0 -14 -14
-49 -30z m-165 -88 c-9 -16 -237 -164 -242 -159 -3 3 5 11 18 18 12 7 40 26
60 42 31 25 157 106 166 107 2 0 1 -4 -2 -8z m3024 -262 c82 -33 154 -60 162
-60 7 -1 42 -17 78 -36 36 -19 54 -33 40 -30 -55 11 -159 45 -220 73 -36 17
-96 43 -135 58 -38 15 -117 51 -175 80 -58 29 -116 56 -130 60 -42 12 -53 26
-34 40 14 10 37 1 142 -57 68 -38 191 -96 272 -128z m-1975 160 c10 -11 16
-20 13 -20 -3 0 -13 9 -23 20 -10 11 -16 20 -13 20 3 0 13 -9 23 -20z m36 -47
c13 -16 12 -17 -3 -4 -17 13 -22 21 -14 21 2 0 10 -8 17 -17z m-1427 -55
c-117 -125 -209 -289 -248 -438 -39 -148 -31 -376 19 -505 13 -33 28 -77 35
-98 8 -24 45 -74 99 -133 67 -74 103 -104 161 -136 197 -108 242 -121 355
-106 110 15 118 4 12 -16 l-98 -19 -82 28 c-113 38 -162 64 -248 133 -151 120
-194 184 -260 377 -62 182 -63 333 -2 520 34 104 62 159 139 277 62 92 113
148 137 148 6 0 -3 -15 -19 -32z m1276 1 c17 -5 5 -8 -42 -8 -173 -2 -261 -27
-393 -110 -165 -103 -242 -199 -253 -313 -7 -81 12 -75 49 17 15 38 38 81 51
97 34 42 121 107 157 118 41 11 39 7 -6 -21 -64 -38 -124 -92 -149 -130 -34
-54 -75 -158 -83 -209 l-8 -45 -11 41 c-7 22 -13 77 -13 122 -2 69 2 88 25
136 35 72 138 166 236 216 69 35 240 93 300 103 29 4 104 -3 140 -14z m-1250
-39 c-12 -16 -24 -30 -26 -30 -7 0 5 20 24 43 24 27 25 20 2 -13z m1313 23
c-7 -2 -19 -2 -25 0 -7 3 -2 5 12 5 14 0 19 -2 13 -5z m137 -18 l55 -15 -53 5
c-28 2 -60 9 -70 14 -25 15 1 13 68 -4z m323 -32 c-7 -2 -21 -2 -30 0 -10 3
-4 5 12 5 17 0 24 -2 18 -5z m-438 -13 c-3 -5 -30 -10 -58 -9 -41 1 -47 3 -27
9 37 12 92 12 85 0z m42 4 c-3 -3 -12 -4 -19 -1 -8 3 -5 6 6 6 11 1 17 -2 13
-5z m-1418 -26 c-7 -13 -21 -36 -33 -53 -12 -16 -38 -61 -58 -100 -21 -38 -38
-67 -38 -64 -1 22 55 137 90 183 45 59 59 71 39 34z m1918 6 c-3 -3 -12 -4
-19 -1 -8 3 -5 6 6 6 11 1 17 -2 13 -5z m-782 -19 c-22 -8 -49 -13 -60 -13
-11 0 -2 6 20 13 22 8 49 13 60 13 11 0 2 -6 -20 -13z m312 -22 c-10 -56 -71
-139 -184 -248 -169 -162 -284 -221 -408 -211 -134 11 -163 23 -185 76 -11 26
-8 36 26 100 57 108 155 184 304 234 166 55 292 81 414 85 l39 1 -6 -37z m256
30 c-7 -2 -21 -2 -30 0 -10 3 -4 5 12 5 17 0 24 -2 18 -5z m1750 -65 c-3 -21
-2 -21 11 -6 12 16 18 16 102 -8 49 -13 97 -27 106 -30 12 -5 21 1 27 17 15
37 13 8 -3 -44 -8 -26 -10 -47 -6 -47 9 0 22 38 40 118 19 83 21 55 4 -38 -11
-57 -13 -85 -6 -88 6 -2 8 -10 5 -18 -4 -11 -23 -5 -92 32 -47 25 -124 61
-171 81 -133 55 -142 61 -130 83 10 18 12 18 63 -5 43 -19 52 -27 50 -47z
m-618 42 c-27 -5 -71 -9 -96 -9 -76 -2 -143 -28 -216 -85 -82 -64 -155 -154
-184 -227 -22 -57 -51 -200 -45 -221 3 -7 7 -44 10 -83 6 -69 6 -70 -11 -40
-12 22 -17 56 -17 125 -1 139 34 243 114 345 115 143 237 204 410 203 78 -1
81 -1 35 -8z m145 0 c20 -6 21 -8 5 -8 -11 0 -31 4 -45 8 -20 6 -21 8 -5 8 11
0 31 -4 45 -8z m1185 -39 c-4 -20 -13 -54 -21 -76 -7 -22 -14 -57 -14 -77 0
-31 -15 -59 -24 -47 -4 6 12 199 18 225 5 17 11 21 27 17 18 -5 20 -11 14 -42z
m35 -221 c22 -11 40 -24 40 -28 0 -10 -111 -65 -117 -58 -3 2 -2 14 2 26 6 17
12 20 36 15 18 -4 29 -3 29 4 0 6 -7 11 -15 11 -8 0 -25 5 -39 12 -20 9 -23
14 -15 25 16 18 33 16 79 -7z m458 -2 c13 0 22 -6 22 -15 0 -13 -9 -14 -47 -9
-133 18 -199 18 -261 2 -75 -19 -84 -19 -57 -4 35 21 157 37 240 32 44 -3 90
-5 103 -6z m-1328 -42 c0 -6 -7 -2 -15 8 -8 11 -15 25 -15 30 0 6 7 2 15 -8 8
-11 15 -25 15 -30z m-461 2 c-109 -36 -177 -120 -187 -232 -4 -50 -7 -56 -14
-35 -13 34 -1 105 28 161 28 56 104 118 145 118 15 0 30 4 33 9 3 5 16 7 28 3
18 -4 12 -9 -33 -24z m249 -143 c65 -129 54 -258 -34 -390 -41 -62 -90 -105
-121 -105 -28 0 -62 36 -153 164 -88 125 -116 196 -105 269 15 99 84 170 193
198 l67 17 58 -41 c48 -34 65 -54 95 -112z m-38 129 c57 -17 79 -37 111 -99
20 -41 17 -39 -32 27 -9 12 -27 23 -40 23 -13 1 -43 14 -66 30 -63 41 -58 44
27 19z m1200 6 c-8 -5 -19 -10 -25 -10 -5 0 -3 5 5 10 8 5 20 10 25 10 6 0 3
-5 -5 -10z m712 -9 c24 -10 75 -29 113 -41 74 -24 128 -49 108 -50 -24 0 -273
95 -273 105 0 8 7 6 52 -14z m-323 -21 c8 -4 10 -10 4 -13 -11 -7 -113 20
-113 30 0 7 91 -6 109 -17z m414 -49 c59 -22 123 -43 142 -47 66 -12 69 -19
55 -118 -7 -50 -18 -90 -25 -92 -6 -3 -43 7 -81 21 -74 28 -193 67 -261 85
l-42 11 5 52 c3 28 7 75 10 104 l5 52 42 -14 c23 -7 91 -31 150 -54z m-5258
-5 c-3 -36 -7 -120 -7 -188 0 -125 9 -161 77 -330 4 -11 3 -18 -4 -18 -6 0
-11 5 -11 11 0 6 -18 55 -39 109 -37 91 -40 105 -43 216 -3 107 14 264 29 264
3 0 2 -29 -2 -64z m4713 13 c101 -37 136 -59 119 -75 -3 -3 -33 8 -68 23 -35
16 -104 40 -152 53 -57 15 -83 26 -75 31 25 16 63 9 176 -32z m315 -74 c-5
-96 -5 -105 10 -99 12 4 17 1 17 -12 0 -16 2 -17 10 -4 9 13 12 12 25 -4 8
-11 15 -15 15 -9 0 6 11 8 25 5 27 -5 29 -10 16 -31 -7 -10 -16 -11 -42 -3
-19 6 -53 16 -76 22 l-43 11 1 47 2 47 6 -40 c6 -35 8 -29 14 45 15 161 30
179 20 25z m-1443 35 c-24 -15 37 -89 116 -137 37 -24 62 -43 55 -43 -8 0 -47
19 -87 43 -61 35 -76 49 -93 87 -11 25 -23 61 -26 80 l-7 35 29 -28 c23 -23
25 -29 13 -37z m705 30 c-3 -5 -11 -10 -16 -10 -6 0 -7 5 -4 10 3 6 11 10 16
10 6 0 7 -4 4 -10z m-972 -40 c7 -29 1 -24 -17 11 -12 23 -12 28 -2 20 8 -7
16 -21 19 -31z m348 -37 c13 -17 13 -17 -6 -3 -11 8 -22 16 -24 17 -2 2 0 3 6
3 6 0 17 -8 24 -17z m1854 7 c3 -5 2 -10 -4 -10 -5 0 -13 5 -16 10 -3 6 -2 10
4 10 5 0 13 -4 16 -10z m-1280 -40 c-16 -16 -31 -27 -34 -24 -6 6 45 54 56 54
4 0 -6 -13 -22 -30z m1295 -2 c0 -35 -47 -143 -64 -146 -11 -3 -13 4 -6 35 5
21 12 59 15 86 6 42 9 47 31 47 18 0 24 -5 24 -22z m-2105 -128 c0 -74 -4 -93
-29 -145 -29 -59 -131 -177 -171 -197 -11 -6 5 12 36 40 89 80 156 235 144
330 -3 26 -8 63 -11 82 l-4 35 17 -30 c13 -22 18 -52 18 -115z m300 122 c-3
-3 -11 0 -18 7 -9 10 -8 11 6 5 10 -3 15 -9 12 -12z m275 -32 c-8 -5 -33 -9
-55 -9 -39 1 -39 2 -10 9 17 4 41 8 55 9 20 0 22 -1 10 -9z m135 -30 c-7 -12
-72 -40 -89 -39 -6 0 12 11 39 24 60 28 58 27 50 15z m-1278 -62 c-3 -8 -6 -5
-6 6 -1 11 2 17 5 13 3 -3 4 -12 1 -19z m129 -206 c35 -45 64 -85 64 -88 0 -3
-23 14 -50 37 -52 44 -103 121 -115 174 l-7 30 22 -35 c13 -19 51 -72 86 -118z
m-1043 7 c23 -8 53 -30 73 -53 39 -46 37 -62 -4 -23 -15 14 -52 38 -82 54
-101 52 -229 36 -440 -53 -38 -16 -48 -18 -31 -6 24 17 90 46 186 83 41 16 69
18 155 15 58 -3 122 -10 143 -17z m682 -35 c25 -16 34 -44 15 -44 -5 0 -19 9
-30 20 -19 19 -27 40 -15 40 3 0 17 -7 30 -16z m477 -99 c16 -14 26 -25 21
-25 -11 0 -70 49 -59 50 4 0 21 -11 38 -25z m-2874 -121 c30 -21 32 -24 12
-19 -24 7 -72 45 -57 45 5 0 25 -12 45 -26z m842 -47 c-78 -53 -128 -78 -135
-67 -9 15 -47 12 -128 -10 -42 -12 -116 -22 -178 -25 -94 -4 -113 -2 -175 20
l-69 25 50 -8 c28 -4 118 -7 200 -6 128 0 165 4 250 26 55 15 123 35 150 46
67 27 76 26 35 -1z m2165 -49 c118 -30 201 -111 231 -227 20 -78 12 -104 -9
-32 -21 69 -61 137 -93 157 -37 25 -38 12 -4 -45 38 -66 39 -77 0 -24 -17 23
-52 55 -77 72 l-46 31 44 0 c43 0 43 0 24 20 -28 27 -160 49 -229 39 -82 -13
-186 -71 -248 -137 -53 -58 -76 -103 -143 -274 -75 -194 -41 -335 119 -490 44
-43 84 -78 88 -78 5 0 8 -4 8 -10 0 -27 -34 -2 -114 82 -48 50 -99 114 -113
142 -53 103 -57 208 -13 334 10 31 28 82 38 112 49 141 124 240 218 288 33 17
119 40 199 55 23 4 62 -1 120 -15z m-20 -88 c182 -88 242 -305 153 -547 -24
-67 -136 -173 -234 -223 -38 -19 -97 -54 -131 -77 l-61 -43 -75 80 c-57 60
-81 95 -102 147 -36 91 -44 191 -21 275 36 132 79 230 116 267 132 131 251
171 355 121z m893 -85 c56 -23 48 -30 -9 -9 -24 9 -71 20 -104 25 l-60 8 65
-3 c36 -2 84 -12 108 -21z m-258 -20 c-7 -9 -15 -13 -19 -10 -3 3 1 10 9 15
21 14 24 12 10 -5z m185 -40 c74 -35 139 -91 183 -158 22 -32 27 -54 30 -125
4 -76 1 -93 -20 -137 -21 -45 -26 -50 -53 -46 -90 10 -239 97 -283 164 -23 35
-27 53 -30 126 -3 84 -2 88 34 149 21 34 44 62 52 62 8 0 47 -16 87 -35z m702
-184 c-3 -61 -11 -110 -21 -130 -22 -42 -29 -40 -10 4 15 37 19 81 6 89 -4 2
-16 -16 -26 -40 -30 -73 -27 -45 5 46 17 47 33 95 36 108 12 47 16 18 10 -77z
m-1302 -111 c-8 -25 -12 -32 -9 -15 3 17 8 66 12 110 l7 80 3 -65 c1 -39 -4
-83 -13 -110z m-1633 111 c13 -5 36 -12 52 -16 15 -3 26 -8 24 -11 -3 -2 -34
2 -69 9 -102 21 -160 13 -268 -39 -52 -24 -88 -38 -82 -30 17 20 127 73 176
85 53 12 139 13 167 2z m2547 -83 c8 -50 8 -73 0 -95 -15 -34 -17 -25 -22 95
-4 102 5 103 22 0z m-2304 -18 c3 -5 -1 -10 -10 -10 -9 0 -13 5 -10 10 3 6 8
10 10 10 2 0 7 -4 10 -10z m-649 -57 c-26 -27 -61 -77 -79 -113 -18 -36 -33
-57 -35 -48 -5 28 38 101 96 160 31 32 58 55 61 53 2 -3 -17 -26 -43 -52z
m424 43 c62 -15 64 -20 18 -80 -100 -131 -169 -180 -304 -217 -77 -21 -123
-21 -176 -1 l-26 11 13 50 c13 50 55 113 105 159 85 77 238 110 370 78z m2170
-125 l35 -21 -27 0 c-18 0 -42 13 -68 37 -59 53 -74 86 -19 41 24 -20 60 -45
79 -57z m640 64 c-7 -9 -27 -25 -44 -36 -28 -19 -28 -18 6 15 38 36 61 49 38
21z m-1170 -62 c-11 -17 -11 -17 -6 0 3 10 6 24 7 30 0 9 2 9 5 0 3 -7 0 -20
-6 -30z m1190 11 c-8 -8 -23 -20 -34 -25 -15 -7 -13 -3 7 15 31 29 47 35 27
10z m-150 -39 c-25 -13 -56 -24 -70 -24 -17 0 -6 8 35 24 77 30 92 31 35 0z
m-2350 -154 c0 -117 -47 -276 -136 -457 -53 -107 -110 -182 -184 -240 -14 -10
-2 4 27 33 53 54 137 180 157 236 7 18 19 46 28 62 21 41 49 135 42 146 -3 5
4 46 15 92 11 45 23 127 27 182 6 84 9 95 16 65 4 -19 8 -73 8 -119z m2154
117 c-19 -62 -125 -197 -188 -240 -18 -12 -2 8 35 48 36 38 74 85 84 104 22
43 66 110 72 110 2 0 1 -10 -3 -22z m71 2 c-28 -12 -45 -12 -45 0 0 6 15 10
33 9 27 0 29 -2 12 -9z m-1075 -63 c-36 -34 -112 -91 -169 -127 -56 -36 -115
-73 -129 -82 -33 -21 -102 -50 -102 -43 0 2 19 17 43 31 23 15 56 39 72 54 17
15 70 47 119 71 49 24 119 70 155 101 36 31 68 57 71 57 3 0 -24 -28 -60 -62z
m880 53 c0 -5 -4 -10 -9 -10 -6 0 -13 5 -16 10 -3 6 1 10 9 10 9 0 16 -4 16
-10z m-2410 -3 c0 -2 -10 -12 -22 -23 l-23 -19 19 23 c18 21 26 27 26 19z
m1621 -50 c-13 -12 -20 -15 -16 -7 14 26 28 41 33 35 3 -3 -5 -16 -17 -28z
m1057 13 c-16 -10 -137 -50 -150 -50 -5 0 -8 4 -8 8 0 5 25 14 55 21 30 7 57
17 60 22 4 5 18 9 33 9 22 -1 24 -2 10 -10z m-3104 -84 c54 -25 106 -29 180
-12 38 9 71 15 73 12 8 -7 -63 -27 -121 -33 -54 -6 -57 -7 -40 -21 17 -13 16
-13 -16 -7 -48 9 -107 49 -130 88 -26 42 -25 61 1 20 11 -17 34 -38 53 -47z
m302 19 c-11 -8 -25 -15 -30 -15 -6 1 0 7 14 15 32 19 40 18 16 0z m1604 -79
c0 -2 -28 -26 -62 -53 -80 -62 -400 -213 -452 -213 -12 0 178 95 299 150 42
19 107 53 143 76 73 46 72 46 72 40z m652 -177 c-61 -28 -252 -74 -275 -66 -7
2 30 14 81 27 51 12 126 33 165 46 96 31 105 29 29 -7z m-791 -9 c137 -44 166
-51 239 -59 l75 -8 -78 -2 c-108 -1 -317 52 -317 81 0 12 10 10 81 -12z m-567
-110 c-12 -12 -233 -90 -256 -90 -45 0 -7 18 115 57 142 45 157 49 141 33z
m-399 -116 c-54 -20 -125 -33 -125 -23 0 19 60 37 125 37 l40 1 -40 -15z
m-315 -18 c0 -19 -33 -76 -44 -76 -5 0 -3 7 4 15 6 8 9 19 6 24 -21 33 -227
18 -353 -27 -116 -41 -280 -148 -259 -169 3 -4 28 3 54 16 l47 23 -45 -44
c-39 -39 -47 -43 -61 -31 -8 7 -24 13 -35 13 -43 0 123 136 211 173 103 43
198 70 285 82 135 18 190 18 190 1z m463 -2 c-27 -11 -97 -29 -293 -72 -23 -5
-24 -4 -11 12 8 9 20 15 26 12 7 -2 54 7 106 21 52 14 108 29 124 33 17 4 41
8 55 8 23 0 23 -1 -7 -14z m-518 -84 c4 -6 -6 -27 -21 -47 -29 -38 -166 -109
-294 -153 -67 -23 -230 -34 -247 -16 -20 20 118 116 248 172 87 38 300 67 314
44z m-355 -35 c-14 -8 -29 -14 -35 -14 -5 0 1 6 15 14 14 8 30 14 35 14 6 0
-1 -6 -15 -14z m-242 -241 c34 -24 117 -28 211 -10 46 9 86 14 88 12 2 -2 -20
-12 -49 -22 -74 -26 -239 -25 -268 1 -36 33 -22 47 18 19z"/>
<path d="M3402 5934 c-27 -18 -31 -78 -6 -88 31 -12 61 -6 82 17 30 32 28 54
-8 72 -36 19 -40 19 -68 -1z m10 -36 c-7 -7 -12 -8 -12 -2 0 14 12 26 19 19 2
-3 -1 -11 -7 -17z m68 2 c0 -5 -4 -10 -10 -10 -5 0 -10 5 -10 10 0 6 5 10 10
10 6 0 10 -4 10 -10z m-22 -27 c2 -8 -5 -13 -17 -13 -12 0 -21 6 -21 16 0 18
31 15 38 -3z"/>
<path d="M3316 5682 c-32 -37 -124 -143 -206 -237 -81 -93 -160 -181 -175
-195 -31 -28 -152 -177 -237 -292 -32 -42 -84 -105 -116 -140 -79 -86 -114
-136 -106 -149 9 -15 99 -54 209 -92 50 -16 182 -68 295 -115 113 -46 259
-104 325 -128 290 -106 684 -273 871 -370 199 -102 247 -125 312 -145 37 -12
117 -45 177 -74 300 -145 607 -285 655 -300 14 -4 72 -30 130 -57 58 -28 141
-65 185 -84 44 -18 102 -45 129 -59 31 -15 66 -25 93 -25 56 0 88 30 144 135
54 102 106 182 144 221 16 17 53 77 82 135 261 527 308 617 363 699 10 14 27
45 39 68 12 23 26 42 31 42 10 0 16 17 25 71 8 44 15 40 -209 104 -87 26 -177
52 -200 59 -22 8 -97 30 -166 51 -69 20 -170 52 -225 70 -55 19 -124 36 -154
40 -70 8 -110 22 -341 120 -107 45 -251 101 -320 123 -173 57 -293 100 -445
161 -71 29 -204 79 -295 112 -91 33 -200 73 -243 90 -43 17 -131 48 -195 69
-64 21 -148 50 -185 64 -76 29 -303 96 -320 95 -7 0 -38 -30 -71 -67z m244 -3
c415 -138 999 -353 1155 -425 31 -14 84 -33 310 -109 165 -55 235 -82 365
-140 125 -56 282 -110 365 -126 33 -6 98 -24 145 -39 47 -16 135 -43 195 -61
61 -17 151 -45 200 -60 50 -16 153 -44 230 -64 77 -20 141 -38 143 -39 1 -2
-6 -14 -16 -26 l-19 -23 -100 26 c-56 15 -165 47 -244 72 -79 25 -193 59 -254
76 -125 34 -235 69 -380 123 -55 21 -181 66 -280 101 -223 78 -284 101 -460
175 -155 65 -366 144 -521 195 -56 18 -120 43 -143 55 -24 12 -89 36 -144 55
-123 40 -332 114 -522 185 -77 29 -157 57 -177 62 -39 11 -48 22 -25 31 17 7
46 0 177 -44z m-176 -24 c-4 -8 -10 -15 -15 -15 -5 0 -9 7 -9 15 0 8 7 15 15
15 9 0 12 -6 9 -15z m35 -11 c-17 -21 -31 -17 -19 6 6 11 15 18 21 14 6 -4 6
-11 -2 -20z m39 -6 c-2 -6 -10 -14 -16 -16 -7 -2 -10 2 -6 12 7 18 28 22 22 4z
m42 -5 c-1 -18 -18 -35 -24 -24 -4 6 -4 16 -1 21 7 12 25 13 25 3z m-90 -32
c103 -28 212 -65 330 -113 69 -28 148 -57 175 -65 28 -8 71 -26 96 -38 25 -13
83 -36 130 -51 46 -14 118 -40 159 -56 41 -17 149 -56 240 -88 91 -32 192 -70
225 -84 33 -15 114 -48 180 -73 66 -25 125 -49 130 -53 6 -4 64 -27 130 -50
66 -23 164 -62 218 -86 53 -24 102 -44 107 -44 6 0 18 -5 28 -10 37 -21 313
-113 427 -141 66 -17 185 -50 265 -74 80 -24 187 -54 239 -66 51 -13 95 -28
97 -34 3 -6 -14 -43 -37 -81 -23 -38 -98 -179 -167 -312 -111 -218 -127 -243
-146 -239 -26 7 -252 97 -447 180 l-146 61 28 23 c42 36 66 81 100 189 40 131
37 164 -25 221 -42 37 -212 129 -276 148 -14 4 -92 37 -175 72 -127 54 -253
99 -340 120 -11 2 -72 26 -135 53 -291 121 -409 170 -414 170 -13 0 -240 92
-294 119 -101 51 -224 83 -320 85 -82 1 -92 -1 -163 -37 -77 -38 -168 -118
-197 -173 -7 -14 -16 -50 -19 -79 -5 -45 -1 -62 21 -104 14 -28 24 -51 21 -51
-2 0 -28 9 -57 21 -29 12 -112 41 -184 65 -72 24 -184 66 -248 94 -64 27 -121
50 -126 50 -26 0 2 39 148 201 86 97 192 217 235 267 87 100 70 94 187 63z
m124 4 c-4 -8 -10 -15 -15 -15 -5 0 -9 7 -9 15 0 8 7 15 15 15 9 0 12 -6 9
-15z m56 -5 c0 -12 -28 -25 -36 -17 -9 9 6 27 22 27 8 0 14 -5 14 -10z m35
-20 c-3 -5 -10 -10 -16 -10 -5 0 -9 5 -9 10 0 6 7 10 16 10 8 0 12 -4 9 -10z
m45 -9 c0 -12 -20 -25 -27 -18 -7 7 6 27 18 27 5 0 9 -4 9 -9z m35 -21 c-3 -5
-11 -10 -16 -10 -6 0 -7 5 -4 10 3 6 11 10 16 10 6 0 7 -4 4 -10z m35 -15 c0
-8 -4 -15 -10 -15 -5 0 -10 7 -10 15 0 8 5 15 10 15 6 0 10 -7 10 -15z m40 -9
c0 -3 -4 -8 -10 -11 -5 -3 -10 -1 -10 4 0 6 5 11 10 11 6 0 10 -2 10 -4z m27
-28 c-3 -8 -6 -5 -6 6 -1 11 2 17 5 13 3 -3 4 -12 1 -19z m43 -3 c0 -8 -7 -15
-16 -15 -14 0 -14 3 -4 15 7 8 14 15 16 15 2 0 4 -7 4 -15z m43 -1 c8 -8 -3
-34 -14 -34 -5 0 -9 9 -9 20 0 19 11 26 23 14z m47 -28 c0 -8 -4 -17 -9 -21
-12 -7 -24 12 -16 25 9 15 25 12 25 -4z m30 -16 c0 -5 -5 -10 -11 -10 -5 0 -7
5 -4 10 3 6 8 10 11 10 2 0 4 -4 4 -10z m40 -15 c0 -8 -4 -15 -9 -15 -13 0
-22 16 -14 24 11 11 23 6 23 -9z m70 -19 c0 -15 -18 -31 -26 -23 -7 7 7 37 17
37 5 0 9 -6 9 -14z m43 -3 c9 -9 -23 -44 -34 -37 -5 3 -3 14 4 24 13 21 20 24
30 13z m47 -17 c0 -16 -14 -36 -26 -36 -16 0 -16 2 -8 24 5 14 34 24 34 12z
m50 -23 c0 -5 -5 -15 -10 -23 -7 -11 -12 -12 -21 -3 -6 6 -8 16 -5 22 8 12 36
15 36 4z m24 -28 c-4 -8 -8 -15 -10 -15 -2 0 -4 7 -4 15 0 8 4 15 10 15 5 0 7
-7 4 -15z m39 -21 c-4 -10 -9 -12 -15 -6 -12 12 -1 35 12 27 5 -3 6 -13 3 -21z
m57 -4 c0 -12 -28 -25 -36 -17 -9 9 6 27 22 27 8 0 14 -5 14 -10z m28 -20
c-14 -22 -24 -19 -15 5 4 8 11 15 17 15 6 0 6 -7 -2 -20z m41 -16 c-17 -21
-31 -17 -19 6 6 11 15 18 21 14 6 -4 6 -11 -2 -20z m41 -9 c-7 -8 -16 -15 -21
-15 -5 0 -6 7 -3 15 4 8 13 15 21 15 13 0 13 -3 3 -15z m40 -4 c0 -5 -7 -14
-15 -21 -16 -14 -18 -10 -9 14 6 17 24 22 24 7z m33 -26 c-3 -8 -12 -15 -19
-15 -12 0 -12 4 -4 20 12 23 32 18 23 -5z m-584 -6 c42 -11 112 -38 156 -59
73 -35 234 -101 295 -120 14 -5 75 -29 135 -55 61 -26 144 -59 185 -74 41 -16
102 -42 135 -58 33 -17 107 -45 165 -63 240 -73 648 -252 717 -315 55 -50 58
-83 18 -208 -32 -101 -90 -177 -152 -198 -71 -23 -224 12 -426 98 -129 54
-487 174 -727 244 -58 17 -148 46 -200 65 -52 19 -131 46 -175 60 -190 59
-423 150 -476 186 -63 41 -81 63 -128 154 -29 56 -30 64 -22 110 15 76 27 95
94 145 78 58 97 69 172 90 81 24 144 23 234 -2z m631 2 c0 -5 -7 -14 -15 -21
-12 -10 -15 -10 -15 2 0 8 3 18 7 21 9 10 23 9 23 -2z m40 -10 c0 -13 -29 -35
-37 -28 -7 8 15 37 28 37 5 0 9 -4 9 -9z m40 -26 c0 -8 -7 -15 -15 -15 -16 0
-20 12 -8 23 11 12 23 8 23 -8z m60 -14 c0 -5 -6 -13 -13 -19 -15 -13 -42 1
-33 17 8 13 46 15 46 2z m43 -27 c-3 -8 0 -14 6 -14 6 0 11 5 11 10 0 6 5 10
10 10 12 0 13 -10 2 -27 -7 -10 -14 -10 -35 0 -26 11 -34 27 -21 40 11 11 33
-4 27 -19z m62 -34 c-5 -16 -10 -19 -18 -11 -7 7 -6 15 3 26 17 20 24 13 15
-15z m45 -4 c0 -8 -7 -16 -15 -20 -17 -6 -18 -4 -9 18 8 20 24 21 24 2z m40
-15 c0 -13 -26 -32 -33 -24 -8 7 11 33 24 33 5 0 9 -4 9 -9z m40 -10 c0 -5 -7
-14 -15 -21 -12 -10 -15 -10 -15 2 0 8 3 18 7 21 9 10 23 9 23 -2z m40 -15 c0
-17 -14 -34 -25 -30 -17 7 -8 34 11 34 8 0 14 -2 14 -4z m40 -25 c0 -12 -20
-25 -27 -18 -7 7 6 27 18 27 5 0 9 -4 9 -9z m22 -23 c-7 -7 -12 -8 -12 -2 0 6
3 14 7 17 3 4 9 5 12 2 2 -3 -1 -11 -7 -17z m48 -2 c0 -15 -18 -31 -26 -23 -7
7 7 37 17 37 5 0 9 -6 9 -14z m40 -15 c0 -5 -7 -14 -15 -21 -16 -14 -18 -10
-9 14 6 17 24 22 24 7z m39 -33 c-7 -13 -14 -17 -20 -11 -14 14 0 43 17 36 10
-4 11 -10 3 -25z m41 -8 c0 -11 -7 -20 -15 -20 -17 0 -18 2 -9 24 9 23 24 20
24 -4z m34 -15 c-4 -8 -8 -15 -10 -15 -2 0 -4 7 -4 15 0 8 4 15 10 15 5 0 7
-7 4 -15z m44 -12 c-4 -22 -22 -20 -26 1 -2 10 3 16 13 16 10 0 15 -7 13 -17z
m42 -18 c-7 -8 -16 -15 -21 -15 -5 0 -6 7 -3 15 4 8 13 15 21 15 13 0 13 -3 3
-15z m40 -4 c0 -12 -20 -25 -27 -18 -7 7 6 27 18 27 5 0 9 -4 9 -9z m36 -17
c-3 -9 -6 -18 -6 -20 0 -2 -7 -4 -15 -4 -13 0 -14 4 -5 20 13 24 35 27 26 4z
m30 -30 c-22 -21 -31 -12 -14 15 7 12 16 17 22 11 5 -5 2 -15 -8 -26z m42 -4
c-7 -11 -16 -20 -21 -20 -4 0 -3 9 3 20 6 11 15 20 20 20 6 0 5 -9 -2 -20z
m50 -6 c-4 -20 -34 -41 -44 -31 -8 8 24 47 38 47 5 0 8 -7 6 -16z m48 -5 c3
-6 1 -16 -5 -22 -22 -22 -11 -30 12 -9 27 26 45 17 20 -10 -19 -21 -23 -21
-58 -8 -26 10 -26 10 -8 35 20 27 29 30 39 14z m101 -37 c10 -6 9 -13 -3 -30
-19 -28 -39 -30 -24 -2 8 14 8 20 0 20 -6 0 -13 -7 -16 -15 -7 -18 -24 -20
-24 -2 0 30 39 47 67 29z m106 -39 c28 -14 28 -15 11 -34 -9 -10 -22 -19 -27
-19 -6 0 -2 9 8 20 15 17 16 20 3 20 -9 0 -18 -7 -22 -15 -3 -8 -13 -15 -22
-15 -15 0 -15 2 0 25 9 14 12 25 6 25 -5 0 -15 -9 -22 -20 -12 -19 -38 -28
-38 -12 0 4 7 18 16 30 17 24 32 23 87 -5z m57 -30 c-1 -14 -30 -47 -36 -41
-6 7 17 48 28 48 5 0 8 -3 8 -7z m48 -19 c-3 -19 -34 -41 -43 -32 -9 9 18 48
33 48 7 0 12 -7 10 -16z m27 -24 c-10 -11 -20 -18 -23 -15 -3 3 3 14 13 25 10
11 20 18 23 15 3 -3 -3 -14 -13 -25z m59 11 c3 -4 -5 -18 -18 -30 -27 -26 -44
-13 -24 19 13 21 33 26 42 11z m25 -37 c-12 -13 -25 -22 -27 -19 -9 8 29 56
39 49 6 -4 2 -15 -12 -30z m61 8 c0 -13 -39 -46 -46 -40 -8 9 19 48 33 48 7 0
13 -4 13 -8z m40 -10 c0 -14 -36 -43 -43 -35 -4 3 0 15 10 25 17 19 33 24 33
10z m30 -9 c-1 -15 -30 -46 -37 -40 -3 4 2 16 12 27 19 21 25 24 25 13z m50
-10 c0 -12 -33 -43 -47 -43 -17 0 -17 10 4 32 16 18 43 25 43 11z m30 -38
c-12 -15 -40 -21 -40 -8 0 3 8 15 17 25 21 23 43 7 23 -17z m48 -5 c-7 -11
-21 -20 -32 -20 -18 0 -19 1 -1 20 10 11 24 20 32 20 11 0 11 -4 1 -20z m42 3
c-1 -14 -30 -47 -36 -41 -8 8 14 48 26 48 6 0 10 -3 10 -7z m39 -34 c-9 -17
-39 -27 -39 -13 0 18 22 42 35 38 11 -5 12 -11 4 -25z m81 1 c12 -7 11 -12 -5
-30 -22 -24 -46 -11 -25 15 7 8 8 15 2 15 -5 0 -15 -7 -22 -15 -18 -22 -32
-18 -18 5 14 21 43 26 68 10z m50 -21 c0 -12 -29 -43 -35 -37 -2 2 -2 14 2 26
5 22 33 31 33 11z m34 -23 c-3 -9 -13 -16 -22 -16 -13 0 -12 3 3 20 20 23 29
21 19 -4z m35 -12 c-14 -18 -24 -11 -15 11 3 9 11 13 16 10 8 -5 7 -11 -1 -21z
m44 -9 c-6 -18 8 -20 25 -3 15 15 24 6 16 -15 -4 -12 -13 -15 -33 -11 -37 9
-46 20 -31 38 15 19 32 12 23 -9z"/>
<path d="M3703 5171 c-45 -12 -77 -34 -110 -77 -24 -33 -28 -46 -27 -103 0
-36 2 -76 4 -89 7 -37 60 -79 120 -94 97 -24 190 1 275 75 39 34 40 37 40 98
0 51 -6 73 -27 110 -39 67 -66 81 -162 85 -45 2 -96 -1 -113 -5z m157 -41 c0
-38 -20 -40 -21 -2 -2 23 -2 24 -6 5 -2 -13 -9 -23 -14 -23 -5 0 -9 10 -9 23
0 17 -2 19 -9 7 -6 -8 -7 -18 -4 -23 3 -5 0 -8 -6 -6 -7 3 -12 8 -12 12 1 4 1
14 1 22 0 11 11 15 40 15 38 0 40 -2 40 -30z m-100 -1 c0 -11 -4 -17 -10 -14
-5 3 -10 13 -10 21 0 8 5 14 10 14 6 0 10 -9 10 -21z m160 6 c9 -10 9 -22 2
-42 l-10 -28 -1 28 c-1 29 -21 39 -21 10 0 -12 -3 -14 -11 -6 -14 14 -2 53 15
53 8 0 19 -7 26 -15z m-223 -32 c-3 -10 -5 -4 -5 12 0 17 2 24 5 18 2 -7 2
-21 0 -30z m30 5 c-3 -7 -5 -2 -5 12 0 14 2 19 5 13 2 -7 2 -19 0 -25z m-80
-55 c-3 -10 -5 -2 -5 17 0 19 2 27 5 18 2 -10 2 -26 0 -35z m29 20 c-10 -10
-19 5 -10 18 6 11 8 11 12 0 2 -7 1 -15 -2 -18z m271 -10 c-3 -10 -5 -4 -5 12
0 17 2 24 5 18 2 -7 2 -21 0 -30z m-159 -12 c2 -12 10 -25 18 -28 22 -8 64 6
64 22 0 8 5 15 11 15 7 0 9 -11 6 -29 -5 -24 -1 -32 18 -45 23 -15 27 -15 50
0 25 16 25 16 25 -18 0 -53 -68 -110 -163 -136 -31 -9 -44 -7 -69 6 -23 13
-32 14 -35 5 -5 -15 -39 -17 -47 -4 -3 5 3 11 14 14 13 3 20 14 20 30 0 22 -5
26 -32 29 -18 2 -31 8 -28 13 3 6 16 9 29 7 40 -5 59 51 21 63 -11 3 -20 11
-20 16 0 12 37 12 45 -1 4 -6 15 -4 30 6 20 13 23 22 19 41 -5 19 -3 24 7 21
8 -3 15 -15 17 -27z m67 9 c0 -19 -35 -26 -46 -8 -15 23 -10 29 19 26 16 -2
27 -9 27 -18z m-105 -5 c0 -19 -24 -30 -41 -19 -9 5 -7 11 6 21 24 17 35 17
35 -2z m-148 -27 c-7 -7 -12 -8 -12 -2 0 6 3 14 7 17 3 4 9 5 12 2 2 -3 -1
-11 -7 -17z m375 0 c-3 -8 -6 -5 -6 6 -1 11 2 17 5 13 3 -3 4 -12 1 -19z
m-350 -20 c-3 -7 -5 -2 -5 12 0 14 2 19 5 13 2 -7 2 -19 0 -25z m317 19 c15
-11 16 -15 4 -25 -18 -14 -55 8 -44 26 9 15 18 15 40 -1z m-337 -64 c-3 -10
-5 -4 -5 12 0 17 2 24 5 18 2 -7 2 -21 0 -30z m83 14 c0 -8 -3 -17 -6 -20 -10
-9 -46 12 -39 24 9 14 45 11 45 -4z m-12 -89 c-3 -7 -11 -13 -18 -13 -7 0 -15
6 -17 13 -3 7 4 12 17 12 13 0 20 -5 18 -12z"/>
<path d="M4305 4914 c-54 -63 -138 -179 -173 -237 l-22 -38 48 -21 c26 -11 85
-37 132 -58 47 -20 130 -52 185 -69 55 -18 136 -46 180 -62 73 -26 194 -59
216 -59 5 0 25 33 45 73 20 39 60 108 90 153 30 44 54 85 54 91 0 6 -15 13
-32 17 -18 3 -55 15 -83 25 -215 82 -275 106 -310 126 -33 19 -265 115 -277
115 -2 0 -26 -25 -53 -56z m63 -64 c-4 -39 -2 -50 10 -50 10 0 12 -7 8 -25 -4
-14 -2 -25 4 -25 5 0 10 6 10 13 0 7 7 22 16 33 15 18 15 18 10 -3 -4 -13 -9
-32 -12 -43 -3 -11 -1 -20 4 -20 6 0 13 12 17 27 4 19 9 23 14 14 5 -7 12 -13
17 -14 5 -1 9 -17 10 -35 1 -36 -28 -82 -52 -82 -17 0 -18 12 -2 28 23 23 -4
12 -41 -16 -53 -42 -69 -49 -46 -22 20 23 20 23 0 16 -17 -6 -17 -4 4 18 30
32 20 34 -21 4 l-30 -21 12 24 c7 13 22 31 34 41 29 24 7 22 -24 -2 -30 -23
-48 -26 -30 -5 16 20 5 19 -26 -1 -39 -26 -39 -9 0 23 42 33 49 53 9 25 -39
-27 -58 -18 -34 16 10 15 29 44 42 64 28 44 35 42 19 -7 -18 -54 -5 -53 25 2
24 46 26 46 22 16 -2 -18 0 -33 4 -33 8 0 19 37 19 68 0 12 3 22 6 22 4 0 4
-22 2 -50z m281 -30 c43 -22 81 -40 84 -40 2 0 21 -7 42 -15 l37 -16 -33 -22
c-67 -45 -117 -161 -105 -239 5 -30 3 -39 -6 -35 -7 3 -65 22 -128 42 -63 20
-119 40 -123 45 -5 4 7 17 27 29 71 44 126 171 110 255 -4 23 -2 36 5 36 6 0
46 -18 90 -40z m-129 -101 c-5 -19 -21 -50 -35 -69 -30 -40 -33 -29 -5 18 11
18 20 40 20 50 0 17 20 45 27 39 1 -2 -2 -19 -7 -38z m275 -23 c-34 -27 -28
-47 7 -22 37 26 44 18 13 -14 -32 -34 -17 -41 22 -10 37 29 48 25 24 -9 -32
-44 -25 -49 14 -11 39 38 46 33 14 -11 -11 -16 -16 -29 -10 -29 5 0 14 6 18
13 4 6 17 19 28 27 17 13 16 11 -3 -14 -27 -35 -21 -47 11 -19 36 32 54 39 27
9 -17 -19 -21 -29 -13 -34 9 -5 6 -17 -9 -40 -23 -36 -38 -41 -38 -12 0 32
-28 13 -41 -28 -7 -21 -14 -31 -16 -24 -3 6 -10 9 -15 5 -8 -4 -9 11 -5 48 l5
54 -19 -40 c-16 -34 -17 -36 -12 -10 l6 30 -22 -25 -22 -25 5 30 c6 29 6 29
-10 10 -15 -19 -15 -19 -9 10 4 17 9 37 11 45 2 8 -5 4 -16 -10 l-20 -25 0 25
c0 36 68 130 94 130 6 0 -2 -11 -19 -24z"/>
<path d="M4840 4531 c-12 -24 -13 -31 -2 -31 5 0 14 11 20 25 14 29 -2 34 -18
6z"/>
<path d="M5407 4536 c-80 -29 -91 -36 -122 -90 -30 -53 -39 -97 -30 -153 5
-37 16 -55 60 -98 66 -66 108 -80 180 -61 67 17 104 38 141 78 60 64 72 165
29 256 -42 90 -129 113 -258 68z m84 -33 c-10 -17 -10 -16 -11 3 0 23 13 41
18 25 2 -6 -1 -18 -7 -28z m52 17 c-3 -12 -8 -19 -11 -16 -5 6 5 36 12 36 2 0
2 -9 -1 -20z m-74 3 c0 -5 -4 -17 -9 -28 -8 -18 -9 -17 -9 8 -1 15 4 27 9 27
6 0 10 -3 9 -7z m92 -16 c-10 -9 -11 -8 -5 6 3 10 9 15 12 12 3 -3 0 -11 -7
-18z m-134 -24 c-3 -10 -5 -4 -5 12 0 17 2 24 5 18 2 -7 2 -21 0 -30z m166 17
c-3 -11 -7 -20 -9 -20 -2 0 -4 9 -4 20 0 11 4 20 9 20 5 0 7 -9 4 -20z m37 1
c0 -5 3 -17 6 -25 5 -12 2 -15 -10 -10 -17 7 -22 44 -6 44 6 0 10 -4 10 -9z
m-233 -53 c-2 -13 -4 -5 -4 17 -1 22 1 32 4 23 2 -10 2 -28 0 -40z m-27 20 c0
-19 -2 -20 -10 -8 -13 19 -13 30 0 30 6 0 10 -10 10 -22z m-26 -73 c5 -49 4
-66 -3 -55 -6 8 -11 32 -11 53 0 20 -5 37 -10 37 -6 0 -5 8 2 20 7 10 13 18
14 17 1 -1 5 -33 8 -72z m200 60 c3 -8 3 -22 0 -30 -11 -28 44 -18 59 10 11
23 15 24 32 11 19 -14 19 -15 -5 -34 -20 -17 -23 -24 -14 -39 6 -10 21 -19 33
-21 16 -3 20 -8 16 -23 -3 -10 -8 -29 -11 -41 -12 -41 -44 -78 -67 -76 -36 2
-77 -19 -71 -37 4 -10 0 -15 -10 -15 -9 0 -16 7 -16 15 0 23 -27 29 -53 12
-18 -12 -24 -12 -35 -1 -18 19 -15 32 9 39 32 11 22 59 -13 63 -38 5 -37 32 1
32 37 0 52 42 25 71 -15 17 -15 19 0 25 9 3 23 1 30 -6 22 -17 56 4 56 35 0
27 24 34 34 10z m44 -2 c-5 -24 -25 -27 -31 -3 -4 15 0 20 15 20 13 0 18 -6
16 -17z m-98 -7 c0 -8 -4 -17 -8 -20 -13 -8 -35 11 -28 23 10 16 36 14 36 -3z
m-173 -58 c-3 -7 -5 -2 -5 12 0 14 2 19 5 13 2 -7 2 -19 0 -25z m353 8 c0 -21
-20 -30 -33 -17 -9 9 -8 14 3 21 21 14 30 12 30 -4z m-253 -40 c-8 -19 -37
-21 -37 -3 0 7 5 18 12 25 15 15 33 -1 25 -22z m-117 -61 c-7 -38 -8 -36 -8
20 -1 40 2 53 7 40 5 -11 5 -38 1 -60z m33 25 c3 -11 1 -23 -4 -26 -5 -3 -9 6
-9 20 0 31 6 34 13 6z m39 -130 c38 -33 36 -48 -3 -16 -17 14 -34 26 -39 26
-9 0 -19 58 -11 66 3 3 10 -7 15 -23 5 -15 22 -39 38 -53z m36 68 c-7 -19 -38
-22 -38 -4 0 10 9 16 21 16 12 0 19 -5 17 -12z m158 -73 c-10 -8 -24 -11 -29
-8 -6 4 -2 10 9 14 31 12 40 9 20 -6z m-96 -20 c0 -8 -4 -15 -9 -15 -13 0 -22
16 -14 24 11 11 23 6 23 -9z"/>
<path d="M5141 5331 c-25 -25 -27 -63 -6 -85 21 -21 78 -30 104 -17 38 21 23
93 -23 105 -13 3 -31 9 -39 12 -9 3 -25 -4 -36 -15z m29 -16 c0 -8 -7 -15 -16
-15 -14 0 -14 3 -4 15 7 8 14 15 16 15 2 0 4 -7 4 -15z m58 -7 c17 -17 15 -58
-3 -65 -23 -8 -28 2 -14 28 9 17 9 24 0 27 -12 4 -15 22 -3 22 4 0 13 -5 20
-12z m-38 -43 c0 -8 -4 -15 -9 -15 -5 0 -14 7 -21 15 -10 13 -9 15 9 15 12 0
21 -6 21 -15z"/>
<path d="M6878 4805 c-32 -18 -42 -44 -29 -78 15 -39 45 -51 81 -32 43 22 54
48 35 85 -9 16 -20 30 -24 30 -5 0 -15 2 -23 5 -7 2 -25 -2 -40 -10z m72 -26
c13 -23 7 -49 -11 -49 -6 0 -9 9 -6 19 3 12 -1 22 -9 25 -19 7 -18 26 1 26 8
0 19 -9 25 -21z m-50 -3 c0 -8 -4 -18 -10 -21 -5 -3 -10 -11 -10 -17 0 -7 4
-7 13 1 15 12 27 5 27 -16 0 -18 -39 -17 -46 2 -8 20 4 65 16 65 6 0 10 -6 10
-14z"/>
<path d="M7051 4515 c0 -38 4 -77 9 -85 12 -18 12 79 0 125 -6 23 -8 13 -9
-40z"/>
<path d="M7020 4453 c0 -53 3 -93 7 -89 10 10 11 186 1 186 -4 0 -8 -43 -8
-97z"/>
<path d="M6989 4479 c-2 -72 3 -135 12 -149 6 -9 7 21 3 80 -7 98 -13 129 -15
69z"/>
<path d="M6916 4384 c-8 -22 -6 -154 4 -184 5 -16 8 16 9 88 1 61 -1 112 -3
112 -2 0 -7 -7 -10 -16z"/>
<path d="M2051 4331 c-23 -15 -19 -78 6 -103 17 -16 28 -19 57 -14 59 11 75
69 30 105 -28 22 -69 27 -93 12z m74 -32 c-10 -15 -65 -11 -65 5 0 8 8 16 18
19 22 5 54 -11 47 -24z m25 -29 c0 -12 -10 -25 -25 -32 -21 -9 -28 -8 -45 7
-22 20 -26 35 -10 35 6 0 10 -6 10 -12 0 -8 13 -13 31 -14 20 -1 29 3 25 11
-4 12 2 25 11 25 2 0 3 -9 3 -20z"/>
<path d="M6849 4229 c-3 -61 3 -165 10 -172 5 -4 6 36 3 90 -4 94 -11 134 -13
82z"/>
<path d="M6815 4203 c-4 -21 -10 -49 -15 -63 -5 -14 -11 -68 -14 -120 -4 -60
-2 -86 3 -70 5 14 10 45 12 70 2 38 3 40 6 13 2 -18 8 -33 14 -33 5 0 9 52 9
120 0 66 -2 120 -5 120 -2 0 -7 -17 -10 -37z"/>
<path d="M1950 4212 c0 -38 95 -95 215 -130 39 -11 108 -32 155 -47 120 -38
127 -39 115 -27 -13 13 -184 76 -264 97 -79 20 -177 68 -193 95 -13 20 -28 27
-28 12z"/>
<path d="M6764 4123 c-4 -16 -12 -31 -17 -35 -15 -10 -23 -248 -8 -248 7 0 11
26 11 75 0 43 4 75 10 75 5 0 9 10 8 23 -1 12 2 48 6 80 8 59 1 78 -10 30z"/>
<path d="M2885 4028 c-72 -39 -50 -138 31 -138 59 0 75 37 45 105 -21 47 -38
54 -76 33z m65 -38 c18 -44 6 -80 -27 -80 -43 0 -81 49 -57 73 13 13 25 -5 13
-20 -11 -12 -10 -14 3 -11 10 1 24 -6 32 -17 18 -24 32 -14 17 13 -7 13 -7 22
1 30 9 9 7 12 -9 12 -23 0 -37 13 -26 24 16 15 42 4 53 -24z"/>
<path d="M2510 3992 c0 -8 115 -58 180 -77 14 -4 72 -30 130 -57 58 -28 141
-63 185 -78 44 -16 116 -43 160 -60 44 -17 132 -49 195 -69 110 -37 207 -73
390 -146 47 -19 123 -48 170 -65 47 -16 130 -52 185 -80 55 -27 132 -61 170
-76 99 -37 313 -133 357 -161 21 -12 40 -23 43 -23 4 0 59 -27 124 -59 65 -33
157 -76 205 -95 48 -20 119 -52 158 -72 38 -19 75 -33 81 -31 7 3 -46 33 -118
67 -302 144 -422 202 -455 221 -66 38 -195 96 -350 158 -85 34 -182 77 -215
95 -33 18 -88 42 -122 54 -34 12 -101 37 -150 56 -48 19 -153 60 -233 92 -80
31 -185 69 -235 85 -49 15 -137 47 -195 69 -58 23 -132 50 -166 60 -33 11
-112 44 -175 74 -64 30 -138 61 -166 69 -28 8 -63 22 -79 30 -43 21 -74 30
-74 19z"/>
<path d="M6706 3984 c-10 -27 -7 -224 4 -224 6 0 10 47 10 120 0 66 -2 120 -4
120 -2 0 -7 -7 -10 -16z"/>
<path d="M3247 3930 c-53 -42 -17 -117 52 -106 49 8 55 17 45 73 -8 44 -12 48
-40 51 -19 2 -40 -5 -57 -18z m78 -45 c0 -30 -4 -41 -17 -43 -13 -2 -18 3 -18
17 0 12 5 21 10 21 6 0 3 12 -7 26 -16 25 -16 26 8 22 21 -3 24 -8 24 -43z
m-58 0 c-2 -35 -19 -43 -25 -11 -3 15 13 46 24 46 2 0 3 -16 1 -35z"/>
<path d="M2502 3895 c0 -16 2 -22 5 -12 2 9 2 23 0 30 -3 6 -5 -1 -5 -18z"/>
<path d="M6667 3913 c-10 -10 -8 -221 2 -227 5 -3 8 48 7 114 0 66 -1 120 -2
120 0 0 -4 -3 -7 -7z"/>
<path d="M6630 3745 c0 -81 4 -125 11 -125 6 0 9 42 7 125 -2 69 -6 125 -10
125 -5 0 -8 -56 -8 -125z"/>
<path d="M6596 3698 c-4 -48 -5 -96 0 -105 10 -21 17 57 12 140 -3 47 -4 44
-12 -35z"/>
<path d="M2492 3725 c-1 -16 -5 -48 -7 -70 -5 -35 -4 -37 5 -15 6 13 9 45 7
70 -2 28 -4 34 -5 15z"/>
<path d="M6561 3653 c1 -43 5 -91 9 -108 5 -19 8 9 7 77 -1 59 -5 108 -9 108
-5 0 -7 -35 -7 -77z"/>
<path d="M6521 3555 c1 -130 17 -165 18 -40 0 55 -4 107 -9 115 -7 10 -9 -14
-9 -75z"/>
<path d="M2467 3580 c-3 -11 -1 -20 4 -20 5 0 9 9 9 20 0 11 -2 20 -4 20 -2 0
-6 -9 -9 -20z"/>
<path d="M3212 3588 c3 -7 -1 -35 -8 -63 -8 -27 -14 -62 -14 -77 0 -43 -21
-128 -31 -128 -6 0 -7 22 -5 53 6 51 5 51 -5 12 -5 -22 -7 -55 -4 -74 6 -31 7
-32 20 -15 13 18 14 16 16 -16 1 -23 3 -28 6 -13 4 19 9 21 36 16 18 -3 44
-12 60 -20 15 -7 27 -10 27 -6 0 5 4 1 10 -7 5 -8 11 -12 13 -10 8 12 47 229
47 266 0 50 -10 60 -75 74 -28 5 -61 13 -73 16 -17 3 -23 1 -20 -8z m50 -39
c-2 -8 -7 -52 -12 -98 -6 -64 -12 -88 -26 -98 -9 -7 -19 -12 -20 -10 -4 4 24
190 31 210 8 20 32 17 27 -4z m18 -231 c60 -34 55 -47 -9 -27 -20 7 -42 13
-50 16 -11 2 -11 6 -1 18 16 19 14 19 60 -7z"/>
<path d="M6492 3485 c0 -55 3 -109 8 -120 11 -25 11 87 0 165 -6 49 -7 44 -8
-45z"/>
<path d="M2492 3550 c0 -14 2 -19 5 -12 2 6 2 18 0 25 -3 6 -5 1 -5 -13z"/>
<path d="M2521 3534 c0 -11 3 -14 6 -6 3 7 2 16 -1 19 -3 4 -6 -2 -5 -13z"/>
<path d="M2545 3520 c-3 -5 -1 -10 4 -10 6 0 11 5 11 10 0 6 -2 10 -4 10 -3 0
-8 -4 -11 -10z"/>
<path d="M6458 3524 c-12 -11 -10 -159 2 -190 6 -15 12 -25 13 -23 6 11 -9
220 -15 213z"/>
<path d="M3421 3484 c0 -11 3 -14 6 -6 3 7 2 16 -1 19 -3 4 -6 -2 -5 -13z"/>
<path d="M6416 3449 c-10 -50 -7 -197 4 -204 6 -4 10 37 10 114 0 67 -2 121
-4 121 -2 0 -6 -14 -10 -31z"/>
<path d="M2690 3459 c0 -5 5 -7 10 -4 6 3 10 8 10 11 0 2 -4 4 -10 4 -5 0 -10
-5 -10 -11z"/>
<path d="M2715 3450 c-3 -5 -1 -10 4 -10 6 0 11 5 11 10 0 6 -2 10 -4 10 -3 0
-8 -4 -11 -10z"/>
<path d="M2740 3435 c0 -8 2 -15 4 -15 2 0 6 7 10 15 3 8 1 15 -4 15 -6 0 -10
-7 -10 -15z"/>
<path d="M6386 3278 c4 -57 8 -105 10 -107 2 -2 4 44 4 102 0 65 -4 107 -10
107 -7 0 -8 -36 -4 -102z"/>
<path d="M2976 3355 c-9 -26 -7 -32 5 -12 6 10 9 21 6 23 -2 3 -7 -2 -11 -11z"/>
<path d="M4840 3363 c-48 -18 -63 -60 -34 -101 28 -41 114 -20 114 28 0 19
-43 80 -55 79 -5 0 -17 -3 -25 -6z m43 -27 c7 -18 -17 -28 -32 -13 -8 8 -11 7
-11 -5 0 -9 -7 -18 -15 -22 -20 -7 -19 13 2 36 19 21 49 24 56 4z m3 -64 c-15
-15 -16 -15 -16 5 0 12 6 23 13 26 19 6 21 -13 3 -31z m-36 -2 c0 -5 -4 -10
-10 -10 -5 0 -10 5 -10 10 0 6 5 10 10 10 6 0 10 -4 10 -10z"/>
<path d="M3039 3334 c-5 -15 -8 -29 -5 -31 2 -2 8 10 14 26 13 38 5 41 -9 5z"/>
<path d="M5398 3270 c-3 -8 -11 -44 -18 -80 -6 -36 -27 -112 -45 -170 -18 -58
-36 -118 -39 -135 -4 -16 -9 -38 -12 -47 -3 -10 -1 -18 5 -18 5 0 15 26 21 58
7 31 23 89 36 127 33 95 67 240 61 262 -3 15 -5 15 -9 3z"/>
<path d="M3272 3220 c0 -14 2 -19 5 -12 2 6 2 18 0 25 -3 6 -5 1 -5 -13z"/>
<path d="M3290 3219 c0 -5 5 -7 10 -4 6 3 10 8 10 11 0 2 -4 4 -10 4 -5 0 -10
-5 -10 -11z"/>
<path d="M6327 3213 c-11 -10 -8 -151 3 -158 7 -4 10 23 9 79 -1 47 -2 86 -4
86 -1 0 -5 -3 -8 -7z"/>
<path d="M6292 3120 c0 -36 4 -76 8 -90 11 -35 12 61 1 115 -8 37 -9 35 -9
-25z"/>
<path d="M4317 3023 c-33 -131 -39 -212 -17 -223 8 -5 37 -16 63 -25 46 -16
48 -18 41 -49 l-6 -31 26 37 c15 23 28 59 32 90 4 29 15 76 25 103 19 51 25
121 11 142 -8 12 -117 63 -137 63 -7 0 -23 -44 -38 -107z m61 74 c8 -9 8 -25
3 -48 -5 -19 -17 -71 -27 -116 -11 -46 -25 -85 -33 -88 -11 -4 -12 4 -7 42 12
88 40 223 47 223 4 0 11 -6 17 -13z m16 -272 c20 -8 36 -22 36 -30 0 -20 -15
-19 -74 4 -44 16 -47 19 -30 29 25 15 25 15 68 -3z"/>
<path d="M5094 3106 c-26 -22 -27 -25 -14 -55 33 -81 141 -54 115 28 -17 54
-58 65 -101 27z m76 -8 c0 -6 -9 -8 -20 -5 -11 3 -20 1 -20 -3 0 -5 -3 -15 -6
-24 -4 -11 -1 -16 10 -16 9 0 16 -7 16 -15 0 -21 -16 -19 -40 5 -16 16 -18 25
-10 40 19 35 70 48 70 18z m10 -44 c0 -14 -4 -23 -10 -19 -5 3 -10 15 -10 26
0 10 5 19 10 19 6 0 10 -12 10 -26z"/>
<path d="M3595 3079 c-4 -6 -5 -12 -2 -15 2 -3 7 2 10 11 7 17 1 20 -8 4z"/>
<path d="M3627 3063 c-4 -3 -7 -11 -7 -17 0 -6 5 -5 12 2 6 6 9 14 7 17 -3 3
-9 2 -12 -2z"/>
<path d="M4240 3035 c0 -8 2 -15 4 -15 2 0 6 7 10 15 3 8 1 15 -4 15 -6 0 -10
-7 -10 -15z"/>
<path d="M3720 3009 c0 -5 5 -7 10 -4 6 3 10 8 10 11 0 2 -4 4 -10 4 -5 0 -10
-5 -10 -11z"/>
<path d="M3750 2999 c0 -5 5 -7 10 -4 6 3 10 8 10 11 0 2 -4 4 -10 4 -5 0 -10
-5 -10 -11z"/>
<path d="M6207 2963 c-9 -9 -8 -79 2 -128 7 -34 9 -26 10 48 1 87 0 93 -12 80z"/>
<path d="M6171 2868 c0 -40 4 -82 9 -93 6 -13 9 12 9 73 1 55 -3 92 -9 92 -6
0 -10 -30 -9 -72z"/>
<path d="M4520 2880 c-6 -23 -9 -44 -6 -47 2 -3 10 14 16 37 6 23 9 44 6 47
-2 3 -10 -14 -16 -37z"/>
<path d="M4485 2890 c-3 -5 -1 -10 4 -10 6 0 11 5 11 10 0 6 -2 10 -4 10 -3 0
-8 -4 -11 -10z"/>
<path d="M6146 2877 c-8 -17 0 -166 10 -176 8 -9 9 6 4 99 -4 64 -8 89 -14 77z"/>
<path d="M4522 2748 c-20 -82 -22 -115 -2 -64 16 44 38 146 30 146 -4 0 -16
-37 -28 -82z"/>
<path d="M4267 2776 c-4 -10 -5 -21 -2 -24 9 -9 17 6 13 25 -3 17 -4 17 -11
-1z"/>
<path d="M4487 2746 c-9 -27 -17 -57 -16 -65 0 -9 9 9 20 39 11 30 18 59 16
64 -2 6 -11 -11 -20 -38z"/>
<path d="M5832 2774 c-33 -23 -29 -68 8 -106 26 -25 36 -29 63 -24 17 4 36 11
41 16 16 16 12 75 -7 104 -20 31 -69 36 -105 10z m88 -13 c13 -26 13 -31 -5
-31 -7 0 -19 8 -24 18 -9 15 -10 15 -11 -5 0 -12 -9 -27 -19 -33 -16 -8 -21
-6 -27 12 -13 43 64 79 86 39z m14 -50 c7 -11 -3 -41 -14 -41 -11 0 -21 30
-14 41 3 5 9 9 14 9 5 0 11 -4 14 -9z m-44 -37 c0 -12 -4 -13 -21 -3 -17 9
-19 13 -8 19 16 11 29 4 29 -16z"/>
<path d="M4360 2741 c-6 -12 -7 -21 -1 -21 10 0 24 30 17 37 -2 3 -9 -5 -16
-16z"/>
<path d="M5246 2745 c-3 -8 -1 -15 4 -15 6 0 10 7 10 15 0 8 -2 15 -4 15 -2 0
-6 -7 -10 -15z"/>
<path d="M4540 2659 c0 -5 5 -7 10 -4 6 3 10 8 10 11 0 2 -4 4 -10 4 -5 0 -10
-5 -10 -11z"/>
<path d="M6024 2620 c-4 -22 -10 -37 -15 -34 -5 3 -9 -14 -9 -38 0 -24 -3 -67
-6 -95 -5 -37 -3 -53 5 -53 6 0 12 17 12 38 1 20 3 29 6 20 2 -10 9 -18 14
-18 5 0 9 49 9 110 0 61 -2 110 -5 110 -3 0 -8 -18 -11 -40z"/>
<path d="M5237 2593 c-9 -28 -20 -179 -14 -173 7 7 28 182 23 188 -2 2 -7 -5
-9 -15z"/>
<path d="M4807 2550 c-3 -11 -2 -20 3 -20 4 0 10 9 13 20 3 11 2 20 -3 20 -4
0 -10 -9 -13 -20z"/>
<path d="M5938 2546 c-6 -11 -12 -59 -13 -106 -2 -47 -6 -111 -10 -142 -5 -40
-4 -58 4 -58 6 0 11 9 11 19 0 28 21 78 27 64 15 -40 23 2 23 115 0 110 -2
129 -16 129 -8 0 -20 -10 -26 -21z m19 -108 c-2 -24 -4 -7 -4 37 0 44 2 63 4
43 2 -21 2 -57 0 -80z m0 -70 c-3 -8 -6 -5 -6 6 -1 11 2 17 5 13 3 -3 4 -12 1
-19z"/>
<path d="M4876 2525 c-3 -8 -1 -15 3 -15 5 0 11 7 15 15 3 8 1 15 -3 15 -5 0
-11 -7 -15 -15z"/>
<path d="M4917 2534 c-4 -4 -7 -14 -7 -23 0 -11 3 -12 11 -4 6 6 10 16 7 23
-2 6 -7 8 -11 4z"/>
<path d="M4957 2513 c-4 -3 -7 -13 -7 -22 1 -13 3 -13 11 2 11 19 8 33 -4 20z"/>
<path d="M4986 2495 c-3 -8 -1 -15 4 -15 6 0 10 7 10 15 0 8 -2 15 -4 15 -2 0
-6 -7 -10 -15z"/>
<path d="M5017 2494 c-4 -4 -7 -14 -7 -23 0 -11 3 -12 11 -4 6 6 10 16 7 23
-2 6 -7 8 -11 4z"/>
<path d="M5057 2483 c-4 -3 -7 -16 -6 -27 0 -19 1 -19 10 3 10 24 8 36 -4 24z"/>
<path d="M5196 2452 c-5 -18 -5 -36 -2 -39 7 -7 19 43 13 59 -2 7 -7 -2 -11
-20z"/>
<path d="M5080 2450 c0 -11 2 -20 4 -20 2 0 6 9 9 20 3 11 1 20 -4 20 -5 0 -9
-9 -9 -20z"/>
<path d="M5117 2456 c-4 -10 -5 -21 -2 -24 9 -9 17 6 13 25 -3 17 -4 17 -11
-1z"/>
<path d="M5155 2450 c-4 -12 -5 -24 -2 -27 3 -2 8 5 12 17 4 12 5 24 2 27 -3
2 -8 -5 -12 -17z"/>
<path d="M2072 3910 c0 -19 2 -27 5 -17 2 9 2 25 0 35 -3 9 -5 1 -5 -18z"/>
<path d="M2090 3896 c0 -8 5 -18 10 -21 6 -3 10 3 10 14 0 12 -4 21 -10 21 -5
0 -10 -6 -10 -14z"/>
<path d="M2207 3893 c-4 -3 -7 -20 -6 -37 l1 -31 9 34 c10 33 8 47 -4 34z"/>
<path d="M2253 3860 c0 -25 2 -35 4 -22 2 12 2 32 0 45 -2 12 -4 2 -4 -23z"/>
<path d="M2136 3871 c-4 -7 -5 -15 -2 -18 9 -9 19 4 14 18 -4 11 -6 11 -12 0z"/>
<path d="M2280 3842 c0 -18 5 -32 10 -32 6 0 8 11 4 28 -10 39 -14 40 -14 4z"/>
<path d="M2160 3849 c0 -5 5 -7 10 -4 6 3 10 8 10 11 0 2 -4 4 -10 4 -5 0 -10
-5 -10 -11z"/>
<path d="M2322 3820 c0 -19 2 -27 5 -17 2 9 2 25 0 35 -3 9 -5 1 -5 -18z"/>
<path d="M3885 2950 c-3 -5 -1 -10 4 -10 6 0 11 5 11 10 0 6 -2 10 -4 10 -3 0
-8 -4 -11 -10z"/>
<path d="M4065 2870 c-3 -5 -1 -10 4 -10 6 0 11 5 11 10 0 6 -2 10 -4 10 -3 0
-8 -4 -11 -10z"/>
<path d="M4156 2833 c-6 -14 -5 -15 5 -6 7 7 10 15 7 18 -3 3 -9 -2 -12 -12z"/>
<path d="M5395 2530 c-4 -34 -5 -63 -2 -66 3 -3 8 22 12 56 4 34 5 63 2 66 -3
3 -8 -22 -12 -56z"/>
<path d="M5426 2508 c-11 -35 -15 -81 -7 -73 9 11 23 85 15 85 -3 0 -6 -6 -8
-12z"/>
<path d="M5457 2474 c-4 -4 -7 -14 -7 -23 0 -11 3 -12 11 -4 6 6 10 16 7 23
-2 6 -7 8 -11 4z"/>
<path d="M5574 2446 c-3 -21 -4 -39 -1 -42 3 -4 9 10 13 30 3 21 4 39 1 42 -3
4 -9 -10 -13 -30z"/>
<path d="M5487 2451 c-4 -17 -3 -21 5 -13 5 5 8 16 6 23 -3 8 -7 3 -11 -10z"/>
<path d="M5541 2453 c-1 -6 -4 -20 -7 -30 -5 -17 -5 -17 6 0 6 10 9 23 6 30
-3 9 -5 9 -5 0z"/>
<path d="M5685 2420 c-4 -23 -5 -43 -2 -46 2 -3 7 14 11 37 4 23 5 44 2 46 -2
2 -7 -14 -11 -37z"/>
<path d="M5715 2418 c-3 -18 -9 -41 -12 -52 -3 -11 -1 -16 5 -12 11 7 27 84
19 92 -3 3 -8 -10 -12 -28z"/>
<path d="M5617 2433 c-4 -3 -7 -16 -6 -27 0 -19 1 -19 10 3 10 24 8 36 -4 24z"/>
<path d="M5647 2413 c-4 -3 -7 -13 -7 -22 1 -13 3 -13 11 2 11 19 8 33 -4 20z"/>
<path d="M5741 2384 c0 -11 3 -14 6 -6 3 7 2 16 -1 19 -3 4 -6 -2 -5 -13z"/>
</g>
</svg>
